<?xml version="1.0" encoding="utf-8"?>
<!-- Generator: Adobe Illustrator 19.1.0, SVG Export Plug-In . SVG Version: 6.00 Build 0)  -->
<svg version="1.1" id="Layer_1" xmlns="http://www.w3.org/2000/svg" xmlns:xlink="http://www.w3.org/1999/xlink" x="0px" y="0px"
	 viewBox="0 0 133.9 81.7" style="enable-background:new 0 0 133.9 81.7;" xml:space="preserve">
<style type="text/css">
	.st0{fill:#CBCC99;}
	.st1{fill:#D6D6A0;}
	.st2{fill:#ACB287;}
	.st3{fill:#B2B78A;}
	.st4{fill:#A2AB82;}
	.st5{fill:#8F9A77;}
	.st6{fill:#B5BA8C;}
	.st7{fill:#ABB286;}
	.st8{fill:#B0B588;}
	.st9{fill:#849170;}
	.st10{fill:#C7CA98;}
	.st11{fill:#808E6D;}
	.st12{fill:#516750;}
	.st13{fill:#536951;}
	.st14{fill:#A3AB81;}
	.st15{fill:#748366;}
	.st16{fill:#607459;}
	.st17{fill:#C5C796;}
	.st18{fill:#DAD8A2;}
	.st19{fill:#748466;}
	.st20{fill:#849270;}
	.st21{fill:#5A6F56;}
	.st22{fill:#949F79;}
	.st23{fill:#778768;}
	.st24{fill:#909C77;}
	.st25{fill:#62765B;}
	.st26{fill:#566B54;}
	.st27{filter:url(#Adobe_OpacityMaskFilter);}
	.st28{fill:url(#SVGID_2_);}
	.st29{mask:url(#SVGID_1_);}
	.st30{fill:#EBEEEA;}
	.st31{fill:#EBEDEB;}
	.st32{fill:#ECEFEC;}
	.st33{fill:#EBEEEC;}
	.st34{fill:#EEF0EC;}
	.st35{fill:#EEEFEC;}
	.st36{fill:#F0F2EE;}
	.st37{fill:#F5F7F2;}
	.st38{fill:#F5F4F0;}
	.st39{fill:#ECEEEC;}
	.st40{fill:#E8EAE7;}
	.st41{fill:#F1F2EF;}
	.st42{fill:#F1F2ED;}
	.st43{fill:#FAF9F4;}
	.st44{fill:#F7F7F2;}
	.st45{fill:#ECEDE6;}
	.st46{fill:#E6E8E1;}
	.st47{fill:#D3D8D1;}
	.st48{fill:#A8B2A5;}
	.st49{fill:#CAD0C2;}
	.st50{fill:#DBDECD;}
	.st51{fill:#E1E4D8;}
	.st52{fill:#F2F3E8;}
	.st53{fill:#EBECDD;}
	.st54{fill:#E7E6D0;}
	.st55{fill:#ECECD8;}
	.st56{fill:#CBD0C0;}
	.st57{fill:#D1D4BB;}
	.st58{fill:#A0AC9D;}
	.st59{fill:#7F8E7F;}
	.st60{fill:#5F745F;}
	.st61{fill:#798975;}
	.st62{fill:#B2BA9F;}
	.st63{fill:#7D8C76;}
	.st64{fill:#A5AF97;}
	.st65{fill:#DDDEBD;}
	.st66{fill:#E4E5CC;}
	.st67{fill:#D3D5BC;}
	.st68{fill:#DCDCBC;}
	.st69{fill:#E4E3BE;}
	.st70{fill:#EEEDE0;}
	.st71{fill:none;stroke:#EEEDE0;stroke-width:0.2115;stroke-miterlimit:10;}
	.st72{fill:#FFFFFF;}
</style>
<g>
	<polygon class="st0" points="82.8,14 82.8,13.9 82.9,7.4 89.9,15.6 82.9,14 82.9,13.9 	"/>
	<polygon class="st1" points="89.9,15.6 86.7,24.5 86.7,24.5 86.7,24.5 82.9,14 89.9,15.6 	"/>
	<polygon class="st2" points="90,15.6 96.6,21.3 86.7,24.5 89.9,15.6 89.9,15.6 90,15.6 	"/>
	<polygon class="st3" points="86.7,24.5 96.6,21.3 96.7,21.3 96.7,21.4 91.1,31.1 91,31.1 86.7,24.6 86.7,24.6 86.7,24.6 86.7,24.6
		86.7,24.5 86.7,24.5 	"/>
	<path class="st4" d="M91.1,31.2L91.1,31.2l5.6-9.8l3.7,12.3l0,0c-1,0.3-2.8,0.1-4.3-0.2L91.1,31.2L91.1,31.2z"/>
	<path class="st5" d="M101.9,22L101.9,22L101.9,22L101.9,22l3.4,7.5c-1.6,0.8-2.8,2.8-4.5,4.1c-0.1,0.1-0.2,0.2-0.4,0.2l0,0
		L101.9,22L101.9,22L101.9,22z"/>
	<polygon class="st2" points="96.7,21.3 101.9,22 100.4,33.7 96.7,21.4 96.7,21.4 96.7,21.4 96.7,21.3 	"/>
	<polygon class="st6" points="96.7,21.3 96.7,21.3 95.6,12 95.6,12.1 102,22 101.9,22 	"/>
	<polygon class="st6" points="95.6,12.1 96.7,21.3 96.7,21.4 96.6,21.3 90,15.6 95.6,12 	"/>
	<polygon class="st5" points="89.9,15.5 89.9,15.6 89.9,15.6 91.9,6.9 91.9,6.9 95.6,12 90,15.6 90,15.6 	"/>
	<polygon class="st7" points="89.9,15.6 89.9,15.6 89.9,15.6 89.9,15.6 82.9,7.4 82.9,7.2 91.9,6.9 	"/>
	<path class="st0" d="M92.1,6.9l-0.2,0l-0.1-0.1l0,0.1l-9,0.3V7.2l5.2-4.8c0,0,0,0,0.1,0L92.1,6.9L92.1,6.9z"/>
	<path class="st8" d="M82.9,7.2L82.9,7.2l-0.1,0.1l-5.9-0.1c4.4-2.9,8.1-4.4,11.3-4.8L82.9,7.2z"/>
	<path class="st9" d="M99.4,4.9l-7.3,1.9l-3.9-4.5c1.2-0.1,2.3-0.1,3.4,0.1C93.5,2.8,96.3,3.7,99.4,4.9"/>
	<path class="st0" d="M92.1,6.9l7.3-1.9c0,0,0.1,0,0.1,0l3.9,6l-11.1-4L92.1,6.9L92.1,6.9z"/>
	<polygon class="st10" points="91.9,6.9 92.1,6.9 92.3,6.9 103.4,10.9 103.5,10.9 103.5,11 103.5,11 103.5,11 103.5,11 95.6,12.1
		95.6,12 	"/>
	<polygon class="st11" points="103.5,11 101.9,21.9 101.9,21.9 101.9,21.9 95.6,12.1 	"/>
	<polygon class="st12" points="103.5,11 107.1,22.6 107,22.6 102,22 102,22 102,22 102,21.9 101.9,21.9 	"/>
	<path class="st7" d="M102,22L102,22l5,0.5l0.1,0.3l-1.6,6.5c-0.1,0-0.1,0-0.2,0.1L102,22z"/>
	<path class="st0" d="M108.1,29.4c-1-0.4-1.9-0.4-2.7,0l1.6-6.5l1.2,6.5l0,0.1L108.1,29.4L108.1,29.4z"/>
	<path class="st13" d="M99.5,36.6L99,40.7H99c0,0-0.8-0.5-2.5-0.6c-2.6-0.2,2.9-3.5,2.9-3.5L99.5,36.6L99.5,36.6z"/>
	<path class="st5" d="M102,37.1l-3,3.6c0,0,0,0,0,0l0.5-4.1l0-0.1L102,37.1L102,37.1z"/>
	<path class="st5" d="M102,37.1l6.8,1.3c-1.7,2.5-8.9,2.4-9.8,2.4L102,37.1L102,37.1z"/>
	<path class="st14" d="M102,37.1c0,0,0.4-0.2,2-1c0.2-0.1,1.7-2,2-2.3l0.1,0.1l2.7,4.5c0,0,0,0,0,0L102,37.1L102,37.1L102,37.1z"/>
	<path class="st5" d="M111.4,30.2l0.1,0.1c-1.2,2.8-2,6.6-2.4,7.5c-0.1,0.2-0.2,0.4-0.3,0.5l-2.8-4.5L111.4,30.2z"/>
	<path class="st14" d="M106,33.8c1.1-1.5,2.3-4.2,2.3-4.2c-0.1,0-0.2-0.1-0.2-0.1l0,0l0.1,0l3.1,0.8L106,33.8L106,33.8z"/>
	<path class="st15" d="M99.5,4.9c3.8,1.4,8,3.3,11.7,4.9l0,0.1l-7.6,1l-0.2-0.1L99.5,4.9z"/>
	<path class="st14" d="M112.6,28.3L112.6,28.3L112.6,28.3L112.6,28.3c-0.4,0.5-0.8,1.2-1.1,2l-0.1-0.1l-3.1-0.8l0-0.1l4.2-5.2l0.1,0
		L112.6,28.3z"/>
	<polygon class="st6" points="107,22.9 107,22.6 107.2,22.6 112.6,24.1 112.6,24.1 112.5,24.2 108.3,29.4 	"/>
	<polygon class="st16" points="114.5,16.1 114.6,16.1 112.6,24.1 107.2,22.6 107.2,22.6 114.4,16.1 	"/>
	<polygon class="st9" points="107.1,22.6 107.1,22.6 103.5,11 103.5,11 103.5,11 103.6,11 114.4,16.1 107.2,22.6 107.1,22.6
		107.1,22.6 	"/>
	<polygon class="st7" points="111.2,10 114.6,16.2 114.4,16.1 103.6,11 103.6,11 	"/>
	<path class="st15" d="M121.1,14.5L121.1,14.5l-6.5,1.6l0,0l-3.3-6.1l0-0.1C116.5,12.3,120.7,14.3,121.1,14.5"/>
	<polygon class="st12" points="112.6,24.1 112.6,24.1 114.6,16.1 114.6,16.1 122.9,28.8 112.6,24.2 	"/>
	<polygon class="st16" points="123,28.9 112.6,28.3 112.6,28.3 112.6,24.2 122.9,28.8 	"/>
	<path class="st13" d="M112.6,28.3l10.4,0.5l0,0l-5.2,5.7c-1.2-1.1-1.9-2.8-2.6-4.2C114.4,28.6,112.5,28.3,112.6,28.3L112.6,28.3
		L112.6,28.3z"/>
	<polygon class="st7" points="123,28.8 122.9,28.8 114.6,16.1 114.6,16.1 124.7,23.4 124.7,23.5 123.1,28.9 	"/>
	<polygon class="st7" points="124.6,23.3 124.7,23.4 114.6,16.1 121.7,16.6 121.8,16.5 121.8,16.6 124.7,23.3 	"/>
	<polygon class="st17" points="114.6,16.1 121.1,14.5 121.8,16.5 121.7,16.6 114.6,16.1 114.6,16.1 	"/>
	<path class="st0" d="M130.3,7.2c2,1.5,1.3,5.6,1.2,6.2l-2.9-0.6c1.1-0.5,1.4-3.9,1.1-5.2C129.7,7.3,129.9,6.9,130.3,7.2"/>
	<path class="st18" d="M125.9,6.9c0.8,0.4,0.2,5.7,0.2,5.7l-4.8,1.8c0.6-0.6,2.6-2.5,3.5-5.4C125.3,7.6,125.1,6.5,125.9,6.9"/>
	<path class="st0" d="M121.8,16.5L121.8,16.5l-0.7-2l0,0c0,0,0,0,0,0s0,0,0,0c0,0,0.1-0.1,0.2-0.2l4.8-1.8L121.8,16.5z"/>
	<path class="st19" d="M132.8,19.1l-4.4-0.2v-0.1l3.1-5.3C134.1,15.3,132.9,19,132.8,19.1C132.9,19,132.9,19,132.8,19.1L132.8,19.1z
		"/>
	<path class="st20" d="M128.6,12.8l2.9,0.6c0,0.1,0,0.1,0,0.1c0,0,0,0,0,0l-3.1,5.3L128.6,12.8z"/>
	<path class="st14" d="M128.4,18.9l0,0.2l-0.1,0l-0.1,0l-6.5-2.5l4.3-3.9c0.6-0.2,2.6,0.2,2.6,0.2L128.4,18.9L128.4,18.9z"/>
	<polygon class="st11" points="121.8,16.5 128.2,19 124.7,23.3 121.8,16.6 121.8,16.5 	"/>
	<polygon class="st11" points="128.4,19.1 128.4,18.9 132.8,19.1 129.7,24.7 129.7,24.7 128.3,19.1 	"/>
	<path class="st21" d="M132.9,19.1c0.2,0.4,1.3,3.2,0.9,6.2c-0.2,1.4-0.6,3.1-1,5l-3.1-5.5l0-0.1L132.9,19.1L132.9,19.1z"/>
	<polygon class="st22" points="124.7,23.4 124.7,23.4 124.7,23.3 128.2,19 128.3,19.1 129.7,24.7 129.7,24.7 129.7,24.8 129.7,24.8
		127.9,32.2 127.8,32.2 127.8,32.3 124.7,23.5 	"/>
	<path class="st23" d="M127.9,32.3L127.9,32.3L127.9,32.3L127.9,32.3l1.7-7.5l3.1,5.5c0,0,0,0,0,0.1L127.9,32.3z"/>
	<polygon class="st24" points="123.1,28.9 124.7,23.5 127.8,32.3 125.7,33.8 125.6,33.8 123,28.9 123,28.9 123,28.9 123,28.8 	"/>
	<path class="st11" d="M125.6,33.9l-7.7,0.7c0,0-0.1-0.1-0.1-0.1l5.2-5.7l0,0l2.6,4.9L125.6,33.9L125.6,33.9z"/>
	<path class="st21" d="M130.7,37.5c-0.2,0.5-0.3,1-0.4,1.4l-0.1-0.1l-2.2-6.5l0,0l4.8-1.9C132.1,32.9,131.3,35.6,130.7,37.5"/>
	<polygon class="st25" points="127.9,32.3 130.2,38.8 125.7,33.8 125.7,33.8 127.8,32.3 127.8,32.2 127.9,32.2 127.9,32.3
		127.9,32.3 127.9,32.3 	"/>
	<path class="st12" d="M125.6,33.9l-4.8,4.1c-0.4-1.3-1.2-2.2-2.3-3c-0.2-0.1-0.4-0.3-0.6-0.4L125.6,33.9z"/>
	<path class="st12" d="M125.2,39.7l-2.8,3.8l0,0c-0.5-0.3-1-1.1-1.1-3.1c0-0.9-0.2-1.7-0.4-2.3L125.2,39.7L125.2,39.7z"/>
	<path class="st23" d="M125.2,39.6l-4.3-1.5c0,0,0,0,0,0l4.8-4.1l0.1,0v0L125.2,39.6L125.2,39.6L125.2,39.6L125.2,39.6z"/>
	<polygon class="st16" points="125.7,33.8 130.2,38.8 130.2,38.9 125.2,39.6 125.7,33.9 125.7,33.9 125.6,33.9 125.6,33.8
		125.7,33.8 	"/>
	<path class="st26" d="M130.2,38.9c-0.7,2.2-1.3,3.1-2.2,4.3c-0.1,0.1-0.2,0.2-0.3,0.3l0,0l-2.4-3.7l0-0.1L130.2,38.9L130.2,38.9
		L130.2,38.9z"/>
	<path class="st12" d="M122.4,43.5l2.8-3.8l0,0l2.4,3.7l0,0c-1.2,1-3.5,0.8-4.8,0.3C122.7,43.7,122.5,43.7,122.4,43.5L122.4,43.5z"
		/>
</g>
<defs>
	<filter id="Adobe_OpacityMaskFilter" filterUnits="userSpaceOnUse" x="8.8" y="7.2" width="87.3" height="70.6">
		<feColorMatrix  type="matrix" values="1 0 0 0 0  0 1 0 0 0  0 0 1 0 0  0 0 0 1 0"/>
	</filter>
</defs>
<mask maskUnits="userSpaceOnUse" x="8.8" y="7.2" width="87.3" height="70.6" id="SVGID_1_">
	<g class="st27">
		<linearGradient id="SVGID_2_" gradientUnits="userSpaceOnUse" x1="5.7949" y1="44.5237" x2="97.6699" y2="44.5237">
			<stop  offset="0" style="stop-color:#000000"/>
			<stop  offset="1" style="stop-color:#FFFFFF"/>
		</linearGradient>
		<rect x="5.8" y="3.1" class="st28" width="91.9" height="82.9"/>
	</g>
</mask>
<g class="st29">
	<path class="st30" d="M11.4,69.8l-1.9,7.8c-1.5-0.6-0.5-6.1-0.5-6.1S10.1,70.9,11.4,69.8"/>
	<path class="st30" d="M17.6,70.2L17.6,70.2c-2.6,2.9-5.1,5.5-5.7,6.2c-1.1,1.1-1.8,1.4-2.2,1.2l1.9-7.8c0,0,0,0,0.1,0L17.6,70.2z"
		/>
	<path class="st31" d="M17.9,63.4l-0.3,6.9l-6.1-0.4c1.4-1.1,3.2-2.7,4.9-4.8C16.9,64.4,17.4,63.9,17.9,63.4"/>
	<path class="st30" d="M18,63.3l7.5-1.4c-0.2,0.3-4.3,4.5-7.9,8.4l0,0l0.3-6.9C17.9,63.3,17.9,63.3,18,63.3"/>
	<path class="st32" d="M25.5,61.7L25.5,61.7c0.1,0.1,0.1,0.1,0.1,0.1L18,63.3c4-4.7,6.4-7.5,6.4-7.5s0,0,0.1-0.1l0,0.1L25.5,61.7z"
		/>
	<polygon class="st33" points="35,57.6 35.1,57.7 25.5,61.8 25.5,61.7 24.5,55.9 24.9,55.8 	"/>
	<path class="st34" d="M24.6,55.7c0.7-0.3,3.7-1.6,6-3.7c1.2-1,2-2.1,2.4-3.3l0,0l2.8,3.8l-11,3.2L24.6,55.7z"/>
	<polygon class="st34" points="35.9,52.5 35,57.6 24.9,55.8 	"/>
	<polygon class="st33" points="41.8,54.7 35.1,57.7 35,57.6 35.9,52.5 36,52.5 41.7,54.7 	"/>
	<polygon class="st35" points="33.1,48.7 41.1,42.3 41.2,42.3 41.3,42.4 41.3,42.4 35.9,52.4 36,52.5 35.9,52.5 	"/>
	<path class="st36" d="M41.1,42.3L41.1,42.3l-8,6.4l0,0c1.1-2.7,0.8-5.7,0.9-8.5L41.1,42.3z"/>
	<path class="st37" d="M44.1,36L34,40.1c0.1-1.8,0.3-3.5,1.3-5c1.2-1.9,2.6-3.1,4.1-4l0,0l0,0L44.1,36L44.1,36z"/>
	<polygon class="st38" points="41.1,42.3 34,40.1 34,40.1 44.1,36 44.2,36 44.1,36.1 44.1,36.2 41.3,42.4 41.3,42.4 41.2,42.3
		41.1,42.3 	"/>
	<polygon class="st36" points="46.3,47.9 36,52.5 35.9,52.4 41.3,42.4 41.3,42.4 46.3,47.9 	"/>
	<polygon class="st39" points="46.3,47.9 41.7,54.7 36,52.5 	"/>
	<path class="st33" d="M46.3,47.9L46.3,47.9l9-1.1l0,0l0,0c-2.1,0.7-6.8,4.9-6.8,4.9l-6.7,2.9l-0.1,0L46.3,47.9L46.3,47.9L46.3,47.9
		z"/>
	<polygon class="st40" points="52.5,39.8 55.3,46.9 46.3,47.9 52.4,39.8 52.5,39.9 	"/>
	<polygon class="st41" points="52.4,39.8 46.3,47.9 46.3,47.9 41.3,42.4 52.2,39.7 	"/>
	<polygon class="st41" points="44.2,36 52.2,39.7 41.3,42.4 41.3,42.4 41.3,42.4 44.1,36.2 44.1,36.1 	"/>
	<polygon class="st42" points="52.6,33.5 52.5,39.8 52.5,39.8 52.5,39.7 52.2,39.7 44.2,36 	"/>
	<polygon class="st43" points="44.1,36 39.4,31.2 39.4,31.2 52.6,33.2 52.7,33.3 52.6,33.3 52.6,33.5 44.2,36 44.1,36 	"/>
	<path class="st44" d="M39.3,31.1c2.4-1.3,5.2-1.6,8.2-2.4c1.4-0.4,2.7-0.8,3.9-1.2h0l1.2,5.7L39.3,31.1L39.3,31.1L39.3,31.1
		L39.3,31.1z"/>
	<polygon class="st45" points="52.7,33.3 52.8,33.3 60.2,36.9 60.2,37 60.1,37 52.5,39.8 52.6,33.5 52.6,33.3 	"/>
	<polygon class="st46" points="60.2,37 55.3,46.9 55.3,46.9 52.5,39.8 52.5,39.8 60.1,37 	"/>
	<path class="st47" d="M55.8,46.8c-0.1,0-0.3,0-0.5,0.1l0,0l0,0l4.9-9.8l0.1,0v0l7.3,9.2C67,46.2,57.1,46.8,55.8,46.8"/>
	<polygon class="st48" points="78.3,41.5 67.7,46.2 67.7,46.2 70.2,36 70.2,36 70.3,36 78.2,41.4 	"/>
	<path class="st49" d="M60.4,37L60.4,37l9.8-1l-2.5,10.2c0,0,0,0,0,0L60.4,37L60.4,37z"/>
	<polygon class="st50" points="70.2,35.9 70.2,35.9 70.2,36 60.4,37 62.6,29.1 62.7,29 62.7,29 62.8,29 	"/>
	<polygon class="st51" points="62.6,29.1 60.4,37 60.3,37 60.2,36.9 60.2,36.9 52.8,33.3 	"/>
	<polygon class="st52" points="52.6,33.2 51.4,27.5 62.6,29 62.6,29.1 52.8,33.3 52.7,33.3 	"/>
	<path class="st53" d="M62.6,29l-11.2-1.5v0c4.4-1.5,7.5-3.3,10-5.2l0,0l1.4,6.7l0,0L62.6,29L62.6,29z"/>
	<path class="st54" d="M70.4,22.4l0,0.1v0l-9-0.2l0,0c3.2-2.5,5.3-5.1,7.5-7.7L70.4,22.4z"/>
	<polygon class="st55" points="70.4,22.6 70.4,22.6 62.8,29 62.7,29 61.4,22.3 70.4,22.5 	"/>
	<polygon class="st56" points="70.4,22.6 70.2,36 70.2,35.9 62.8,29 	"/>
	<polygon class="st57" points="70.5,22.5 70.6,22.5 80.9,34.3 70.3,36 70.2,36 70.4,22.6 70.4,22.6 70.4,22.6 	"/>
	<polygon class="st58" points="80.9,34.3 81,34.4 78.2,41.4 70.3,36 80.9,34.3 	"/>
	<polygon class="st59" points="88.8,36.8 78.3,41.5 78.2,41.4 81,34.4 88.8,36.8 	"/>
	<polygon class="st60" points="96.1,33.6 88.8,36.8 88.8,36.8 91.1,31.3 	"/>
	<polygon class="st61" points="81,34.3 90.9,31.3 91.1,31.2 91.1,31.2 91.1,31.3 88.8,36.8 81,34.4 	"/>
	<polygon class="st62" points="86.6,24.5 86.7,24.6 81.1,34.3 80.9,34.3 70.6,22.5 	"/>
	<polygon class="st63" points="90.9,31.3 81,34.3 81.1,34.3 86.7,24.6 91,31.1 91.1,31.1 91.1,31.2 91.1,31.2 	"/>
	<polygon class="st64" points="70.6,22.2 82.8,14 82.8,14 82.9,14 86.7,24.5 86.6,24.5 70.6,22.5 70.5,22.4 	"/>
	<polygon class="st65" points="82.8,14 70.6,22.2 75.8,12.5 75.7,12.5 75.8,12.5 75.8,12.5 82.8,13.9 82.8,13.9 	"/>
	<path class="st66" d="M75.7,12.5L75.7,12.5L75.7,12.5l-5.1,9.7l-0.2,0.1l-0.1-0.1v0.1l0,0l-1.6-7.9c0,0,0.1-0.1,0.1-0.1L75.7,12.5
		L75.7,12.5L75.7,12.5z"/>
	<path class="st67" d="M75.7,12.5l-6.8,1.9c1.9-2.3,3.9-4.5,6.7-6.4c0.4-0.3,0.8-0.6,1.2-0.8L75.7,12.5L75.7,12.5z"/>
	<polygon class="st68" points="82.8,7.3 75.8,12.5 75.8,12.5 75.7,12.5 75.7,12.5 76.8,7.2 82.8,7.2 	"/>
	<polygon class="st69" points="82.9,7.4 82.8,13.9 82.8,13.9 75.8,12.5 82.8,7.3 	"/>
</g>
<path class="st70" d="M35.7,33.6c0.3-0.1,0.7-0.4,1-0.4c-1.1,1.2-2,2.6-2.4,4.2c-0.2,1-0.3,1.9-0.3,2.9c0,0.6,0,1.2,0,1.8
	c0,0.2,0.1,0.6-0.1,0.8c-0.1,0.1-0.2,0.2-0.3,0.3c-1.2,1.2-2.2,2.5-3.2,3.8c-0.8,1.1-1.7,2.3-2.3,3.5c0.4-0.9,0.6-1.9,0.7-2.9
	c-0.2-0.6-1.2,1.9-2,3.8c-0.3,0.8-1,2.7-1.3,3.5c-0.1,0.1,0.4-1.9-1.1-1.1c-1.1,0.6-3.2,3.9-3.7,4.8c-0.8,1.3-4.7,5.9-4.7,5.8
	c0-0.2,0.3-0.7,0.4-0.9c0.3-0.8,0.6-1.7,0.9-2.6c0-0.1-1.4,0.9-1.7,1.2c-0.7,0.5-1.3,1.1-1.9,1.6c-2.4,2-3.8,2.6-4.7,3
	c1.4-1.1,3-2.5,4.2-3.7c1.6-1.6,0.3-1-0.2-0.8c-2.8,1.3-3.8,1.9-6.5,3.3C4.3,66.7,1.1,68,0,68.3c4.4-2.1,6.1-3,9.2-4.9
	c4-2.4,8.1-5.5,11.2-9c1.6-1.8,3-3.7,4.3-5.7c1.5-2.2,3-4.5,4.4-6.9c1.3-2.2,2.4-4.6,4.2-6.5C34,34.7,34.8,34.1,35.7,33.6"/>
<g>
	<path class="st71" d="M76.8,7.2c-9.9,6.3-10.5,16.4-29.3,21.6c-4.8,1.3-9.3,1.3-12.3,6.4c-3,5,1.1,12-4.6,17
		c-2.7,2.4-6.2,3.7-6.2,3.7s-3,3.4-7.9,9.3c-3.4,4.1-7.3,6.5-7.3,6.5s-1.7,9.6,2.7,4.9c1.5-1.6,13.7-14.6,13.7-14.6l23-10
		c0,0,5.5-4.9,7.3-5c4.3-0.2-1.9,0.1,11.9-0.6l28.4-12.6"/>
	<line class="st71" x1="9.6" y1="77.8" x2="11.5" y2="69.8"/>
	<line class="st71" x1="11.5" y1="69.8" x2="17.6" y2="70.2"/>
	<line class="st71" x1="17.6" y1="70.2" x2="17.9" y2="63.3"/>
	<line class="st71" x1="17.9" y1="63.3" x2="25.6" y2="61.8"/>
	<line class="st71" x1="25.5" y1="61.7" x2="24.5" y2="55.7"/>
	<line class="st71" x1="24.5" y1="55.7" x2="35" y2="57.6"/>
	<line class="st71" x1="35" y1="57.6" x2="35.9" y2="52.5"/>
	<line class="st71" x1="35.9" y1="52.5" x2="24.4" y2="55.9"/>
	<line class="st71" x1="35.9" y1="52.5" x2="33" y2="48.6"/>
	<line class="st71" x1="35.9" y1="52.4" x2="41.9" y2="54.7"/>
	<line class="st71" x1="86.7" y1="24.5" x2="81" y2="34.3"/>
	<line class="st71" x1="81" y1="34.3" x2="91.1" y2="31.2"/>
	<line class="st71" x1="86.6" y1="24.5" x2="91.1" y2="31.2"/>
	<line class="st71" x1="81" y1="34.3" x2="78.2" y2="41.5"/>
	<line class="st71" x1="91.1" y1="31.2" x2="88.8" y2="36.7"/>
	<line class="st71" x1="88.8" y1="36.7" x2="80.9" y2="34.3"/>
	<line class="st71" x1="41.7" y1="54.7" x2="46.3" y2="47.9"/>
	<line class="st71" x1="46.3" y1="47.9" x2="55.3" y2="46.9"/>
	<line class="st71" x1="46.3" y1="47.9" x2="35.9" y2="52.5"/>
	<line class="st71" x1="35.9" y1="52.4" x2="41.3" y2="42.4"/>
	<line class="st71" x1="41.3" y1="42.4" x2="44.1" y2="36.2"/>
	<line class="st71" x1="44" y1="36.1" x2="52.7" y2="33.5"/>
	<line class="st71" x1="52.7" y1="33.4" x2="62.7" y2="29.1"/>
	<line class="st71" x1="62.7" y1="29.1" x2="70.4" y2="22.6"/>
	<line class="st71" x1="70.4" y1="22.6" x2="75.8" y2="12.5"/>
	<line class="st71" x1="91.1" y1="31.2" x2="96.1" y2="33.6"/>
	<line class="st71" x1="41.2" y1="42.3" x2="33" y2="48.7"/>
	<line class="st71" x1="41.1" y1="42.3" x2="33.9" y2="40.1"/>
	<line class="st71" x1="33.9" y1="40.1" x2="44.1" y2="36"/>
	<line class="st71" x1="44.1" y1="36" x2="39.3" y2="31.2"/>
	<line class="st71" x1="39.4" y1="31.2" x2="52.8" y2="33.3"/>
	<line class="st71" x1="52.7" y1="33.4" x2="51.4" y2="27.4"/>
	<line class="st71" x1="51.4" y1="27.5" x2="62.7" y2="29.1"/>
	<line class="st71" x1="62.7" y1="29" x2="61.4" y2="22.3"/>
	<line class="st71" x1="61.4" y1="22.3" x2="70.4" y2="22.5"/>
	<line class="st71" x1="70.4" y1="22.5" x2="68.8" y2="14.4"/>
	<line class="st71" x1="68.8" y1="14.4" x2="75.8" y2="12.5"/>
	<line class="st71" x1="41.2" y1="42.3" x2="46.3" y2="47.9"/>
	<line class="st71" x1="46.3" y1="47.9" x2="52.5" y2="39.8"/>
	<line class="st71" x1="52.5" y1="39.8" x2="60.1" y2="37"/>
	<line class="st71" x1="60.1" y1="37" x2="70.2" y2="36"/>
	<line class="st71" x1="70.2" y1="36" x2="81.1" y2="34.3"/>
	<line class="st71" x1="78.4" y1="41.6" x2="70.2" y2="35.9"/>
	<line class="st71" x1="70.2" y1="35.9" x2="67.7" y2="46.2"/>
	<line class="st71" x1="67.7" y1="46.2" x2="60.2" y2="36.9"/>
	<line class="st71" x1="60.2" y1="36.9" x2="55.3" y2="46.9"/>
	<line class="st71" x1="55.3" y1="46.9" x2="52.5" y2="39.7"/>
	<line class="st71" x1="52.5" y1="39.7" x2="41.1" y2="42.5"/>
	<line class="st71" x1="44.1" y1="36" x2="52.5" y2="39.8"/>
	<line class="st71" x1="52.5" y1="39.8" x2="52.6" y2="33.3"/>
	<line class="st71" x1="52.6" y1="33.3" x2="60.4" y2="37"/>
	<line class="st71" x1="60.4" y1="37" x2="62.6" y2="28.9"/>
	<line class="st71" x1="62.6" y1="28.9" x2="70.2" y2="36"/>
	<line class="st71" x1="70.2" y1="36" x2="70.4" y2="22.3"/>
	<line class="st71" x1="70.4" y1="22.3" x2="81" y2="34.4"/>
	<line class="st71" x1="86.7" y1="24.6" x2="70.4" y2="22.5"/>
	<line class="st71" x1="70.3" y1="22.5" x2="82.9" y2="13.9"/>
	<line class="st71" x1="82.9" y1="13.9" x2="86.7" y2="24.7"/>
	<line class="st71" x1="82.8" y1="13.9" x2="75.6" y2="12.5"/>
	<line class="st71" x1="75.7" y1="12.5" x2="82.9" y2="7.2"/>
	<line class="st71" x1="75.7" y1="12.5" x2="76.8" y2="7.2"/>
	<line class="st71" x1="76.8" y1="7.2" x2="82.9" y2="7.2"/>
	<line class="st71" x1="82.9" y1="7.2" x2="82.8" y2="14"/>
</g>
<g>
	<path class="st70" d="M9.9,77.9c0,0.2-0.3,0.3-0.5,0.3c-0.2-0.1-0.3-0.3-0.3-0.5c0-0.2,0.3-0.3,0.5-0.3C9.9,77.5,10,77.7,9.9,77.9"
		/>
	<path class="st70" d="M11.8,69.9c0.1-0.2-0.1-0.4-0.3-0.5c-0.2-0.1-0.4,0.1-0.5,0.3c-0.1,0.2,0.1,0.4,0.3,0.5
		C11.6,70.2,11.8,70.1,11.8,69.9"/>
	<path class="st70" d="M17.5,70.6c0.2,0,0.4-0.2,0.4-0.4c0-0.2-0.2-0.4-0.4-0.4c-0.2,0-0.4,0.2-0.4,0.4
		C17.1,70.4,17.3,70.6,17.5,70.6"/>
	<path class="st70" d="M18.3,63.3c0-0.2-0.2-0.4-0.4-0.4c-0.2,0-0.4,0.2-0.4,0.4c0,0.2,0.2,0.4,0.4,0.4
		C18.1,63.7,18.3,63.5,18.3,63.3"/>
	<path class="st70" d="M25.6,62.2c0.2,0,0.4-0.3,0.3-0.5c0-0.2-0.2-0.4-0.5-0.3c-0.2,0-0.4,0.2-0.3,0.5
		C25.2,62.1,25.4,62.2,25.6,62.2"/>
	<path class="st70" d="M24.9,55.6c0-0.2-0.2-0.4-0.5-0.3c-0.2,0-0.4,0.2-0.3,0.5c0,0.2,0.2,0.4,0.5,0.3
		C24.8,56.1,24.9,55.8,24.9,55.6"/>
	<path class="st70" d="M35,58c0.2,0,0.4-0.1,0.5-0.3c0-0.2-0.1-0.4-0.3-0.5c-0.2,0-0.4,0.1-0.5,0.3C34.6,57.7,34.7,57.9,35,58"/>
	<path class="st70" d="M36.3,52.6c0-0.2-0.1-0.4-0.3-0.5c-0.2,0-0.4,0.1-0.5,0.3c0,0.2,0.1,0.4,0.3,0.5C36,53,36.2,52.8,36.3,52.6"
		/>
	<path class="st70" d="M33.4,48.4c-0.1-0.2-0.4-0.2-0.6-0.1c-0.2,0.1-0.2,0.4-0.1,0.6c0.1,0.2,0.4,0.2,0.6,0.1
		C33.4,48.8,33.5,48.6,33.4,48.4"/>
	<path class="st70" d="M41.7,55.1c0.2,0.1,0.4,0,0.5-0.2c0.1-0.2,0-0.4-0.2-0.5c-0.2-0.1-0.4,0-0.5,0.2C41.4,54.8,41.5,55,41.7,55.1
		"/>
	<path class="st70" d="M86.4,24.3c0.1-0.2,0.4-0.3,0.5-0.1c0.2,0.1,0.3,0.4,0.1,0.5c-0.1,0.2-0.4,0.3-0.5,0.1
		C86.3,24.8,86.2,24.5,86.4,24.3"/>
	<path class="st70" d="M80.7,34.1c-0.1,0.2,0,0.4,0.1,0.5c0.2,0.1,0.4,0,0.5-0.1c0.1-0.2,0-0.4-0.1-0.5C81,33.9,80.8,33.9,80.7,34.1
		"/>
	<path class="st70" d="M77.8,41.3c-0.1,0.2,0,0.4,0.2,0.5c0.2,0.1,0.4,0,0.5-0.2c0.1-0.2,0-0.4-0.2-0.5C78.1,41,77.9,41.1,77.8,41.3
		"/>
	<path class="st70" d="M46.6,48.1c0.1-0.2,0.1-0.4-0.1-0.6c-0.2-0.1-0.4-0.1-0.6,0.1c-0.1,0.2-0.1,0.4,0.1,0.6
		C46.2,48.4,46.5,48.3,46.6,48.1"/>
	<path class="st70" d="M55.4,47.2c0.2,0,0.4-0.2,0.4-0.4c0-0.2-0.2-0.4-0.4-0.4c-0.2,0-0.4,0.2-0.4,0.4C55,47.1,55.2,47.3,55.4,47.2
		"/>
	<path class="st70" d="M41.6,42.6c0.1-0.2,0-0.4-0.2-0.5c-0.2-0.1-0.4,0-0.5,0.2c-0.1,0.2,0,0.4,0.2,0.5
		C41.3,42.9,41.5,42.8,41.6,42.6"/>
	<path class="st70" d="M44.5,36.3c0.1-0.2,0-0.4-0.2-0.5c-0.2-0.1-0.4,0-0.5,0.2c-0.1,0.2,0,0.4,0.2,0.5
		C44.1,36.5,44.4,36.5,44.5,36.3"/>
	<path class="st70" d="M52.8,33.8c0.2-0.1,0.3-0.3,0.3-0.5C53,33,52.8,32.9,52.6,33c-0.2,0.1-0.3,0.3-0.3,0.5
		C52.4,33.7,52.6,33.8,52.8,33.8"/>
	<path class="st70" d="M62.8,29.4c0.2-0.1,0.3-0.3,0.2-0.5c-0.1-0.2-0.3-0.3-0.5-0.2c-0.2,0.1-0.3,0.3-0.2,0.5
		C62.4,29.4,62.6,29.5,62.8,29.4"/>
	<path class="st70" d="M70.8,22.8c0.2-0.1,0.2-0.4,0.1-0.6c-0.1-0.2-0.4-0.2-0.6-0.1c-0.2,0.1-0.2,0.4-0.1,0.6
		C70.4,22.9,70.6,22.9,70.8,22.8"/>
	<path class="st70" d="M76.1,12.7c0.1-0.2,0-0.4-0.2-0.5c-0.2-0.1-0.4,0-0.5,0.2c-0.1,0.2,0,0.4,0.2,0.5C75.8,13,76,12.9,76.1,12.7"
		/>
	<path class="st70" d="M34,39.7c-0.2-0.1-0.4,0.1-0.5,0.3c-0.1,0.2,0.1,0.4,0.3,0.5c0.2,0.1,0.4-0.1,0.5-0.3
		C34.3,40,34.2,39.8,34,39.7"/>
	<path class="st70" d="M39.6,30.9c-0.2-0.2-0.4-0.2-0.6,0c-0.2,0.2-0.2,0.4,0,0.6c0.2,0.2,0.4,0.2,0.6,0
		C39.8,31.3,39.8,31,39.6,30.9"/>
	<path class="st70" d="M51.8,27.4c0-0.2-0.3-0.4-0.5-0.3c-0.2,0-0.4,0.3-0.3,0.5c0,0.2,0.3,0.4,0.5,0.3
		C51.7,27.8,51.8,27.6,51.8,27.4"/>
	<path class="st70" d="M61.8,22.2c0-0.2-0.3-0.4-0.5-0.3c-0.2,0-0.4,0.3-0.3,0.5c0,0.2,0.3,0.4,0.5,0.3
		C61.7,22.6,61.8,22.4,61.8,22.2"/>
	<path class="st70" d="M69.2,14.4c0-0.2-0.3-0.4-0.5-0.3c-0.2,0-0.4,0.3-0.3,0.5c0,0.2,0.3,0.4,0.5,0.3
		C69.1,14.8,69.3,14.6,69.2,14.4"/>
	<path class="st70" d="M52.8,40c0.1-0.2,0.1-0.4-0.1-0.6c-0.2-0.1-0.4-0.1-0.6,0.1C52,39.7,52,40,52.2,40.1
		C52.4,40.2,52.6,40.2,52.8,40"/>
	<path class="st70" d="M60.4,37.4c0.2-0.1,0.3-0.3,0.2-0.5c-0.1-0.2-0.3-0.3-0.5-0.2c-0.2,0.1-0.3,0.3-0.2,0.5
		C60,37.3,60.2,37.4,60.4,37.4"/>
	<path class="st70" d="M70.3,36.4c0.2,0,0.4-0.2,0.4-0.4c0-0.2-0.2-0.4-0.4-0.4c-0.2,0-0.4,0.2-0.4,0.4
		C69.9,36.2,70.1,36.4,70.3,36.4"/>
	<path class="st70" d="M68,46c0.1,0.2,0.1,0.4-0.1,0.6c-0.2,0.1-0.4,0.1-0.6-0.1c-0.1-0.2-0.1-0.4,0.1-0.6
		C67.6,45.8,67.9,45.8,68,46"/>
	<path class="st70" d="M83.1,14.3c0.2-0.1,0.2-0.4,0.1-0.6c-0.1-0.2-0.4-0.2-0.6-0.1c-0.2,0.1-0.2,0.4-0.1,0.6
		C82.7,14.3,82.9,14.4,83.1,14.3"/>
</g>
<path class="st72" d="M88.5,36.6c0.1-0.2,0.4-0.3,0.5-0.1c0.2,0.1,0.3,0.4,0.1,0.5c-0.1,0.2-0.4,0.3-0.5,0.1
	C88.5,37,88.4,36.8,88.5,36.6"/>
<g>
	<path class="st70" d="M121.2,40.4c-0.1-2.8-1.1-4.2-2.8-5.4c-0.7-0.5-1.3-1.1-1.8-1.8c-0.6-0.9-1-1.9-1.5-2.9c-0.8-1.7-2.7-2-2.7-2
		c-1.1,1.5-2,4.4-2.6,6.6l0,0l0,0.4l1-1c0,0,0.2,0.4,0.3,1.1c0,0.6-0.1,1-0.1,1l1.6-0.5c-0.2,0.5-0.8,2-0.8,2
		c0.5-0.8,3.3-3.7,3.6-4.1c-1.1,1.3-2.5,5.1-2.5,5.1c1.3-2,3.6-4.3,3.7-4.4c-0.7,0.8-2.2,4.9-2.2,4.9c0.3-0.4,1.5-0.7,1.5-0.7
		c-0.9,0.9-1.1,3.3-1.1,3.5c1.7-1.3,4.3-1.2,4.3-1.2c-0.7,0.9-0.7,1.5-0.7,1.5c0.5-0.4,1.6-1.6,1.8-1.7c-0.6,0.6-0.3,2.1-0.3,2.1
		c0.4-0.5,1-1.8,1-1.8l0.1-0.1C121.2,40.7,121.2,40.6,121.2,40.4"/>
	<path class="st70" d="M122.3,13.2c0,0-2.2-1.8-5.6-2.1c0,0-2.6-2.8-6.6-3.1c0,0,0,0-0.1-0.1c-0.4-0.5-2.5-2.1-5.5-2.7
		c0,0-2.6-2.4-7.2-3c0,0-3.2-2-7.3-2.1c-2-0.1-5.1,0.4-8.4,1.5c-1.1,0.4-4.1,1.5-6.6,3.1c-1.5,1-2.6,1.8-4.3,3.6
		c-1.5,1.5-2.3,1.6-3.5,1.7c0,0,1.7,1.1,3.8-0.9c2.4-2.2,4.3-3.2,5.7-3.6c0,0-1.7,2.4-8.8,6.3c-2.2,1.2-4,4.3-4.1,5.7
		c0,0,1.5-2.8,3.3-4c1.1-0.7,1.6-0.6,1.4-0.5c-0.7,0.5-1.8,1.5-3.1,3.9c-0.1,0.1-1.8,3.3-1.9,3.4c2.5-2.2,7.7-8.7,11.9-12
		c0.2-0.2,0.4-0.3,0.6-0.5C76.3,7.5,76.6,7.2,77,7c6.2-4,10.6-5.2,14.5-4.5c3.7,0.6,11.2,3.7,17.7,6.6c6.4,2.8,11.8,5.5,11.8,5.5
		s0.4-0.4,0.7-0.6C122,13.6,122.3,13.3,122.3,13.2C122.3,13.2,122.3,13.2,122.3,13.2"/>
	<path class="st70" d="M103,33.8c-0.1,0.1-2.6,1.6-3.1,1.8c0.1-0.1,2.8-2.1,2.2-2.1c-0.2,0-3.6,1.5-3.7,1.6c-0.1,0,0.6-0.6,1.2-1.2
		c0.5,0,0.9-0.1,1.1-0.3c1.1-0.9,2.1-2.1,3.1-3.1c1-0.9,1.5-1.1,1.8-1.2c0.8-0.3,1.6-0.3,2.7,0.2c0,0-2.7,5.8-4.3,6.6
		c-0.6,0.3-1.1,0.5-1.5,0.7l0,0c0,0,0.9-1.1,1.1-1.3c0,0-1.5,0.5-1.9,0.6C101.7,36.1,102.9,34.9,103,33.8"/>
</g>
<g>
	<path class="st70" d="M28.6,75.5c-0.1-0.1,0-0.2,0.1-0.3c0.1,0,0.2,0,0.3,0.1c0.2,0.7,0.6,1.3,1.3,1.8s1.3,0.7,2.1,0.7
		c1,0,1.8-0.4,2.5-1.1c0.7-0.7,1-1.5,1.1-2.5v-7.7c0-0.1,0.1-0.2,0.2-0.2c0.1,0,0.2,0.1,0.2,0.2v7.7c0,1.1-0.4,2-1.2,2.8
		c-0.8,0.8-1.7,1.2-2.8,1.2c-0.9,0-1.7-0.3-2.3-0.8C29.3,76.9,28.8,76.3,28.6,75.5"/>
	<path class="st70" d="M39.3,70.1c0-0.1,0.1-0.2,0.2-0.2c0.1,0,0.1,0,0.1,0.1c0,0,0.1,0.1,0.1,0.2v4.7c0,0.8,0.3,1.5,0.9,2.1
		c0.6,0.6,1.3,0.9,2.1,0.9c0.8,0,1.5-0.3,2.1-0.9c0.6-0.6,0.9-1.3,0.9-2.1v-4.7c0-0.1,0-0.1,0.1-0.2c0,0,0.1-0.1,0.2-0.1
		c0.1,0,0.2,0.1,0.2,0.2v4.7c0,0.9-0.3,1.7-1,2.4c-0.7,0.7-1.4,1-2.4,1c-0.9,0-1.7-0.3-2.4-1c-0.7-0.7-1-1.5-1-2.4V70.1z"/>
	<path class="st70" d="M50.1,78.2C50,78.2,50,78.2,50.1,78.2c-0.1,0-0.1-0.1-0.1-0.1c0,0,0,0,0-0.1v-7.9c0-0.1,0.1-0.2,0.2-0.2
		c0.1,0,0.2,0.1,0.2,0.2v1.5c0.3-0.5,0.7-0.9,1.2-1.3c0.5-0.3,1.1-0.5,1.7-0.5c0.9,0,1.7,0.3,2.4,1c0.7,0.7,1,1.5,1,2.4V78
		c0,0.1-0.1,0.2-0.2,0.2c-0.1,0-0.2-0.1-0.2-0.2v-4.7c0-0.8-0.3-1.5-0.9-2.1c-0.6-0.6-1.3-0.9-2.1-0.9c-0.8,0-1.5,0.3-2.1,0.9
		c-0.6,0.6-0.9,1.3-0.9,2.1V78C50.3,78.2,50.3,78.2,50.1,78.2L50.1,78.2z"/>
	<path class="st70" d="M67.4,69.9c-0.1,0-0.1,0-0.1,0.1c0,0-0.1,0.1-0.1,0.2v2.1c-0.3-0.7-0.8-1.2-1.4-1.7c-0.6-0.4-1.3-0.6-2.1-0.6
		c-1.1,0-2,0.4-2.8,1.2c-0.8,0.8-1.1,1.8-1.1,2.9s0.4,2.1,1.1,2.9c0.8,0.8,1.7,1.2,2.8,1.2c0.7,0,1.4-0.2,2.1-0.6
		c0.6-0.4,1.1-1,1.4-1.7v1.8c0,1-0.3,1.8-1,2.5c-0.7,0.7-1.5,1-2.5,1.1c-0.5,0-1-0.1-1.5-0.4c-0.1,0-0.2,0-0.3,0.1
		c-0.1,0.1,0,0.2,0.1,0.3c0.6,0.3,1.2,0.4,1.7,0.4c1.1,0,2-0.4,2.8-1.2c0.8-0.8,1.1-1.7,1.1-2.8v-7.6C67.6,70,67.6,69.9,67.4,69.9z
		 M66.2,76.7c-0.7,0.7-1.5,1.1-2.5,1.1c-1,0-1.8-0.4-2.5-1.1c-0.7-0.7-1-1.6-1-2.6c0-1,0.3-1.9,1-2.6c0.7-0.7,1.5-1.1,2.5-1.1
		c1,0,1.8,0.4,2.5,1.1c0.7,0.7,1,1.6,1,2.6C67.2,75.1,66.9,76,66.2,76.7z"/>
	<path class="st70" d="M71.7,66.5c0-0.1,0.1-0.2,0.2-0.2c0.1,0,0.2,0.1,0.2,0.2V78c0,0.1-0.1,0.2-0.2,0.2c-0.1,0-0.2-0.1-0.2-0.2
		V66.5z"/>
	<path class="st70" d="M82,71c-0.8-0.7-1.7-1.1-2.8-1.1c-1.1,0-2,0.4-2.8,1.2c-0.8,0.8-1.2,1.8-1.2,3c0,1.1,0.4,2.1,1.2,2.9
		c0.8,0.8,1.7,1.2,2.8,1.2c0.7,0,1.3-0.2,1.9-0.5c0.6-0.3,1.1-0.8,1.4-1.4c0.1-0.1,0.1-0.2-0.1-0.3c-0.1-0.1-0.2-0.1-0.3,0
		c-0.3,0.5-0.7,0.9-1.3,1.2c-0.5,0.3-1.1,0.5-1.7,0.5c-1,0-1.9-0.4-2.6-1.1c-0.7-0.7-1.1-1.6-1.1-2.6V74H83c0.1,0,0.2-0.1,0.2-0.2
		v-0.1C83.2,72.6,82.7,71.7,82,71z M75.6,73.6c0.1-0.9,0.5-1.7,1.2-2.3c0.7-0.6,1.5-0.9,2.4-0.9c0.9,0,1.7,0.3,2.4,0.9
		c0.7,0.6,1.1,1.4,1.2,2.3H75.6z"/>
	<path class="st70" d="M100.7,76.6c0.1-0.1,0.2-0.1,0.3,0c0.1,0.1,0.1,0.2-0.1,0.3c-1.2,0.9-2.5,1.3-3.9,1.3c-1.7,0-3.2-0.6-4.4-1.8
		c-1.2-1.2-1.8-2.6-1.8-4.3c0-1.7,0.6-3.1,1.8-4.3c1.2-1.2,2.7-1.8,4.4-1.8c1.4,0,2.7,0.4,3.9,1.3c0.1,0.1,0.1,0.2,0.1,0.3
		c-0.1,0.1-0.2,0.1-0.3,0c-1-0.8-2.2-1.2-3.6-1.2c-1.6,0-2.9,0.5-4,1.6c-1.1,1.1-1.7,2.4-1.7,4c0,1.5,0.6,2.9,1.7,4
		c1.1,1.1,2.5,1.6,4,1.6C98.4,77.8,99.6,77.4,100.7,76.6"/>
	<path class="st70" d="M110.7,71.1c-0.8-0.8-1.7-1.2-2.8-1.2c-1.1,0-2,0.4-2.8,1.2c-0.8,0.8-1.1,1.8-1.1,2.9s0.4,2.1,1.1,2.9
		c0.8,0.8,1.7,1.2,2.8,1.2c1.1,0,2-0.4,2.8-1.2c0.8-0.8,1.2-1.8,1.2-2.9S111.5,71.9,110.7,71.1z M110.4,76.7
		c-0.7,0.7-1.5,1.1-2.5,1.1c-1,0-1.8-0.4-2.5-1.1c-0.7-0.7-1-1.6-1-2.6c0-1,0.3-1.9,1-2.6c0.7-0.7,1.5-1.1,2.5-1.1
		c1,0,1.8,0.4,2.5,1.1c0.7,0.7,1,1.6,1,2.6C111.4,75.1,111.1,76,110.4,76.7z"/>
	<path class="st70" d="M122.3,66.3c0,0-0.1,0-0.1,0.1c0,0.1-0.1,0.1-0.1,0.2v5.6c-0.3-0.7-0.8-1.2-1.5-1.7c-0.6-0.4-1.3-0.6-2.1-0.6
		c-1.1,0-2.1,0.4-2.9,1.2c-0.8,0.8-1.2,1.8-1.2,2.9c0,1.1,0.4,2.1,1.2,3c0.8,0.8,1.7,1.2,2.9,1.2c0.8,0,1.5-0.2,2.1-0.6
		c0.6-0.4,1.1-1,1.5-1.6V78c0,0.1,0,0.1,0.1,0.2c0,0,0.1,0.1,0.1,0.1c0.1,0,0.2-0.1,0.2-0.2V66.6C122.5,66.4,122.4,66.3,122.3,66.3z
		 M122.1,74c0,1-0.4,1.9-1.1,2.7c-0.7,0.7-1.6,1.1-2.5,1.1c-1,0-1.8-0.4-2.6-1.1c-0.7-0.7-1.1-1.6-1.1-2.7c0-1,0.4-1.9,1.1-2.6
		c0.7-0.7,1.5-1.1,2.5-1.1c1,0,1.8,0.3,2.5,1c0.7,0.7,1.1,1.5,1.1,2.5V74z"/>
	<path class="st70" d="M132.4,71c-0.8-0.7-1.7-1.1-2.8-1.1c-1.1,0-2,0.4-2.8,1.2c-0.8,0.8-1.2,1.8-1.2,3c0,1.1,0.4,2.1,1.2,2.9
		c0.8,0.8,1.7,1.2,2.8,1.2c0.7,0,1.3-0.2,1.9-0.5c0.6-0.3,1.1-0.8,1.4-1.4c0.1-0.1,0.1-0.2-0.1-0.3c-0.1-0.1-0.2-0.1-0.3,0
		c-0.3,0.5-0.7,0.9-1.3,1.2c-0.5,0.3-1.1,0.5-1.7,0.5c-1,0-1.9-0.4-2.6-1.1c-0.7-0.7-1.1-1.6-1.1-2.6V74h7.4c0.1,0,0.2-0.1,0.2-0.2
		v-0.1C133.6,72.6,133.2,71.7,132.4,71z M126.1,73.6c0.1-0.9,0.5-1.7,1.2-2.3c0.7-0.6,1.5-0.9,2.4-0.9c0.9,0,1.7,0.3,2.4,0.9
		c0.7,0.6,1.1,1.4,1.2,2.3H126.1z"/>
</g>
</svg>
